<svg width="10" height="7" viewBox="0 0 10 7" fill="none" xmlns="http://www.w3.org/2000/svg">
<path fill-rule="evenodd" clip-rule="evenodd" d="M3.82722 0.953188L3.83612 0.953125H8.883C9.22818 0.953125 9.508 1.23295 9.508 1.57812C9.508 1.9233 9.22818 2.20312 8.883 2.20312H3.84496L3.83991 2.20828L3.83988 2.20825L1.30957 4.73075L1.31054 4.73094L4.58398 5.38719C4.92242 5.45504 5.14178 5.78441 5.07393 6.12285C5.00608 6.4613 4.67671 6.68066 4.33827 6.61281L1.0658 5.95675C1.06562 5.95671 1.06543 5.95668 1.06524 5.95664C0.843492 5.91244 0.637881 5.80892 0.470309 5.65711C0.302595 5.50516 0.179278 5.31054 0.113514 5.094C0.0477494 4.87746 0.0420049 4.64712 0.0968943 4.42757C0.151784 4.20802 0.265247 4.00749 0.425178 3.84738L0.426115 3.84644L0.426116 3.84644L2.95522 1.32514C3.18573 1.09151 3.49894 0.957864 3.82722 0.953188Z" fill="white"/>
</svg>
